<mxfile host="app.diagrams.net" modified="2021-06-30T10:23:49.238Z" agent="5.0 (Macintosh; Intel Mac OS X 10_15_7) AppleWebKit/537.36 (KHTML, like Gecko) Chrome/91.0.4472.114 Safari/537.36" etag="9QLOZuzCTvcd3g7SuWCO" version="14.8.2" type="github">
  <diagram id="umcQdf8n9Hy7CaAOuaSm" name="Page-1">
    <mxGraphModel dx="946" dy="536" grid="1" gridSize="10" guides="1" tooltips="1" connect="1" arrows="1" fold="1" page="1" pageScale="1" pageWidth="827" pageHeight="1169" math="0" shadow="0">
      <root>
        <mxCell id="0" />
        <mxCell id="1" parent="0" />
        <mxCell id="3qFSLNHa823Q9wV1_3MV-1" value="主线程执行Run" style="shape=rect;html=1;whiteSpace=wrap;align=center;" vertex="1" parent="1">
          <mxGeometry x="100" y="370" width="100" height="30" as="geometry" />
        </mxCell>
        <mxCell id="3qFSLNHa823Q9wV1_3MV-2" value="b2:Block2" style="shape=rect;html=1;whiteSpace=wrap;align=center;" vertex="1" parent="1">
          <mxGeometry x="250" y="110" width="100" height="30" as="geometry" />
        </mxCell>
        <mxCell id="3qFSLNHa823Q9wV1_3MV-3" value="" style="edgeStyle=none;dashed=1;html=1;endArrow=none;" edge="1" source="3qFSLNHa823Q9wV1_3MV-1" parent="1">
          <mxGeometry relative="1" as="geometry">
            <mxPoint x="150" y="310" as="targetPoint" />
          </mxGeometry>
        </mxCell>
        <mxCell id="3qFSLNHa823Q9wV1_3MV-4" value="" style="edgeStyle=none;dashed=1;html=1;endArrow=none;" edge="1" source="3qFSLNHa823Q9wV1_3MV-2" parent="1">
          <mxGeometry relative="1" as="geometry">
            <mxPoint x="300" y="210" as="targetPoint" />
          </mxGeometry>
        </mxCell>
        <mxCell id="3qFSLNHa823Q9wV1_3MV-5" value="" style="edgeStyle=none;html=1;endArrow=open;verticalAlign=bottom;endSize=12;" edge="1" parent="1">
          <mxGeometry relative="1" as="geometry">
            <mxPoint x="150" y="310" as="sourcePoint" />
            <mxPoint x="640" y="310" as="targetPoint" />
          </mxGeometry>
        </mxCell>
        <mxCell id="3qFSLNHa823Q9wV1_3MV-8" value="b1:Block1" style="shape=rect;html=1;whiteSpace=wrap;align=center;" vertex="1" parent="1">
          <mxGeometry x="370" y="110" width="100" height="30" as="geometry" />
        </mxCell>
        <mxCell id="3qFSLNHa823Q9wV1_3MV-9" value="b2:Block2" style="shape=rect;html=1;whiteSpace=wrap;align=center;" vertex="1" parent="1">
          <mxGeometry x="520" y="110" width="100" height="30" as="geometry" />
        </mxCell>
        <mxCell id="3qFSLNHa823Q9wV1_3MV-10" value="" style="edgeStyle=none;dashed=1;html=1;endArrow=none;" edge="1" parent="1" source="3qFSLNHa823Q9wV1_3MV-8">
          <mxGeometry relative="1" as="geometry">
            <mxPoint x="420" y="210" as="targetPoint" />
          </mxGeometry>
        </mxCell>
        <mxCell id="3qFSLNHa823Q9wV1_3MV-11" value="" style="edgeStyle=none;dashed=1;html=1;endArrow=none;" edge="1" parent="1" source="3qFSLNHa823Q9wV1_3MV-9">
          <mxGeometry relative="1" as="geometry">
            <mxPoint x="570" y="210" as="targetPoint" />
          </mxGeometry>
        </mxCell>
        <mxCell id="3qFSLNHa823Q9wV1_3MV-12" value="asyncSignal" style="edgeStyle=none;html=1;endArrow=open;verticalAlign=bottom;endSize=12;" edge="1" parent="1">
          <mxGeometry relative="1" as="geometry">
            <mxPoint x="420" y="180" as="sourcePoint" />
            <mxPoint x="570" y="180" as="targetPoint" />
          </mxGeometry>
        </mxCell>
      </root>
    </mxGraphModel>
  </diagram>
</mxfile>
